<?xml version="1.0" encoding="utf-8"?><svg width="1028" height="553" viewBox="0 0 1028 553" xmlns="http://www.w3.org/2000/svg" xmlns:xlink="http://www.w3.org/1999/xlink"><view id="image-arrow-top" viewBox="0 514 40 39"/><svg width="40" height="39" fill="none" viewBox="-1 -1 40 39" y="514" xmlns="http://www.w3.org/2000/svg"><path d="M7.6 0v3.7h23.921L0 34.392 2.679 37 34.2 6.309V29.6H38V0H7.6z" fill="#FDE3A7"/></svg><view id="image-facebook" viewBox="0 0 514 514"/><svg width="514" height="514" viewBox="-1 -1 26 26" xmlns="http://www.w3.org/2000/svg"><path d="M15.997 3.985h2.191V.169C17.81.117 16.51 0 14.996 0c-3.159 0-5.323 1.987-5.323 5.639V9H6.187v4.266h3.486V24h4.274V13.267h3.345l.531-4.266h-3.877V6.062c.001-1.233.333-2.077 2.051-2.077z" fill="#fde3a7" data-original="#000000"/></svg><view id="image-instagram" viewBox="60 514 20 21"/><svg width="20" height="21" fill="none" viewBox="-1 -1 20 21" x="60" y="514" xmlns="http://www.w3.org/2000/svg"><path d="M12.281 2.937a3.291 3.291 0 013.282 3.282v6.562a3.291 3.291 0 01-3.282 3.282H5.72a3.291 3.291 0 01-3.282-3.282V6.22A3.291 3.291 0 015.72 2.937h6.562zm0-1.312H5.72a4.607 4.607 0 00-4.594 4.594v6.562a4.607 4.607 0 004.594 4.594h6.562a4.607 4.607 0 004.594-4.594V6.22a4.607 4.607 0 00-4.594-4.594z" fill="#FDE3A7"/><path d="M13.265 6.219a.984.984 0 110-1.97.984.984 0 010 1.97zM9 6.875a2.625 2.625 0 110 5.25 2.625 2.625 0 010-5.25zm0-1.312a3.938 3.938 0 100 7.875 3.938 3.938 0 000-7.875z" fill="#FDE3A7"/></svg><view id="image-linkedin" viewBox="514 0 514 514"/><svg width="514" height="514" viewBox="-1 -1 26 26" x="514" xmlns="http://www.w3.org/2000/svg"><path d="M23.994 24v-.001H24v-8.802c0-4.306-.927-7.623-5.961-7.623-2.42 0-4.044 1.328-4.707 2.587h-.07V7.976H8.489v16.023h4.97v-7.934c0-2.089.396-4.109 2.983-4.109 2.549 0 2.587 2.384 2.587 4.243V24zM.396 7.977h4.976V24H.396zM2.882 0C1.291 0 0 1.291 0 2.882s1.291 2.909 2.882 2.909 2.882-1.318 2.882-2.909A2.884 2.884 0 002.882 0z" fill="#fde3a7" data-original="#000000"/></svg><view id="image-play" viewBox="40 514 20 24"/><svg width="20" height="24" fill="none" viewBox="-1 -1 20 24" x="40" y="514" xmlns="http://www.w3.org/2000/svg"><path d="M18 11L0 21.392V.608L18 11z" fill="#FDE3A7"/></svg></svg>